<svg id="Capa_1" enable-background="new 0 0 512.011 512.011" height="512" viewBox="0 0 512.011 512.011" width="512" xmlns="http://www.w3.org/2000/svg"><path d="m341.346 170.739c7.814-7.807 7.819-20.47.013-28.284-7.809-7.814-20.472-7.819-28.284-.012l-173.215 173.065c-23.394 23.394-23.394 61.458 0 84.853 23.387 23.385 61.45 23.403 84.849.005l229.78-229.633c39.081-39.08 39.085-102.335.001-141.421-39.074-39.074-102.332-39.09-141.417-.004 0 0-243.922 243.773-243.924 243.774-54.585 54.586-54.585 143.404.001 197.99 54.584 54.584 143.401 54.587 197.99 0l155.563-155.563c7.81-7.811 7.81-20.474 0-28.284-7.811-7.811-20.475-7.811-28.285 0l-155.563 155.563c-38.983 38.983-102.426 38.996-141.421 0-38.99-38.99-38.99-102.432 0-141.421.001-.001.003-.003.004-.005l243.915-243.766c23.447-23.448 61.4-23.451 84.853 0 23.441 23.442 23.455 61.398.004 84.848l-229.782 229.633c-7.797 7.798-20.486 7.798-28.283 0-7.799-7.798-7.799-20.486-.007-28.278z"/></svg>