<svg id="Layer_1" height="512" viewBox="0 0 64 64" width="512" xmlns="http://www.w3.org/2000/svg" xmlns:xlink="http://www.w3.org/1999/xlink"><linearGradient id="SVGID_1_" gradientUnits="userSpaceOnUse" x1="14.038" x2="49.991" y1="31.994" y2="31.994"><stop offset="0" stop-color="#ffddf3"/><stop offset="1" stop-color="#7900e9"/></linearGradient><path d="m28.166 46.473c-.001 0-.143-.004-.157-.085l-2.638-14.61-11.329-9.585c-.016-.149.023-.204.037-.212 0 0 35.78-4.466 35.781-4.466.056 0 .096.059.109.087.036.072.019.095.008.108l-21.742 28.733z" fill="url(#SVGID_1_)"/><g fill="#541491"><path d="m23.535 33.844c-.346 0-.682-.179-.867-.5-.276-.479-.112-1.09.366-1.366l9.506-5.488c.476-.277 1.089-.113 1.366.366.276.479.112 1.09-.366 1.366l-9.506 5.488c-.157.091-.329.134-.499.134z"/><path d="m26.04 47.74c-.475 0-.896-.339-.983-.822l-2.507-13.897c-.098-.544.264-1.063.807-1.162.551-.1 1.063.264 1.162.807l2.507 13.896c.098.544-.264 1.063-.807 1.162-.061.011-.12.016-.179.016z"/><path d="m28.177 49.47c-.251 0-.507-.029-.763-.091-1.233-.294-2.137-1.237-2.357-2.461-.098-.544.264-1.063.807-1.162.55-.097 1.063.264 1.162.807.116.647.683.831.854.871.17.039.756.135 1.153-.391.334-.44.96-.526 1.401-.194.44.334.527.961.194 1.401-.595.785-1.491 1.22-2.451 1.22z"/><path d="m23.533 33.844c-.228 0-.457-.077-.645-.236l-10.781-9.119c-.422-.356-.475-.988-.118-1.409.357-.422.987-.476 1.409-.118l10.782 9.118c.422.356.475.988.118 1.409-.198.235-.481.355-.765.355z"/><path d="m12.752 24.725c-.228 0-.457-.078-.646-.236-.948-.804-1.313-2.057-.952-3.271s1.353-2.065 2.585-2.219c.554-.063 1.048.32 1.116.868s-.32 1.048-.868 1.116c-.652.081-.866.637-.916.805s-.174.75.328 1.174c.421.357.474.988.117 1.41-.198.232-.48.353-.764.353z"/><path d="m13.862 20.99c-.497 0-.928-.37-.991-.876-.068-.548.32-1.048.868-1.116l35.746-4.463c.552-.065 1.048.32 1.116.868s-.32 1.048-.868 1.116l-35.746 4.463c-.042.005-.084.008-.125.008z"/><path d="m29.829 48.646c-.21 0-.422-.066-.603-.202-.44-.334-.527-.961-.194-1.401l21.739-28.726c.334-.44.96-.527 1.401-.194.44.334.527.961.194 1.401l-21.738 28.726c-.197.26-.496.396-.799.396z"/><path d="m51.568 19.921c-.21 0-.422-.066-.603-.203-.44-.333-.527-.96-.193-1.4.402-.532.142-1.079.053-1.234-.089-.153-.425-.653-1.091-.563-.549.064-1.048-.319-1.117-.867s.319-1.048.867-1.117c1.249-.155 2.43.435 3.072 1.548.645 1.116.572 2.435-.19 3.441-.196.258-.495.395-.798.395z"/></g></svg>